<?xml version="1.0" encoding="UTF-8"?><!DOCTYPE svg PUBLIC "-//W3C//DTD SVG 1.1//EN" "http://www.w3.org/Graphics/SVG/1.1/DTD/svg11.dtd"><svg xmlns="http://www.w3.org/2000/svg" xmlns:xlink="http://www.w3.org/1999/xlink"><defs><path id="a" d="M413.6 0h358.8v139.7H413.6V0z"/><path id="SVGID_1_" d="M0 0h242.8v105.2H0z"/></defs><symbol id="any_room"><g fill="#58595B"><path d="M0 0v48h32V0Zm2 2h28v40H2Zm28 44H2v-2h28Z"/><path d="M16 22a9 9 0 1 0 9 9 9 9 0 0 0-9-9Zm0 16a7 7 0 1 1 7-7 7 7 0 0 1-7 7Z"/><path d="M16 26a5 5 0 1 0 5 5 5 5 0 0 0-5-5Zm0 8a3 3 0 1 1 3-3 3 3 0 0 1-3 3ZM7 4h2v2H7zM23 4h2v2h-2zM7 18h2v2H7zM23 18h2v2h-2zM16 19a7 7 0 1 0-7-7 7 7 0 0 0 7 7Zm0-12a5 5 0 1 1-5 5 5 5 0 0 1 5-5Z"/><path d="M16 16a4 4 0 1 0-4-4 4 4 0 0 0 4 4Zm0-6a2 2 0 1 1-2 2 2 2 0 0 1 2-2Z"/></g></symbol><symbol id="app"><g fill="#58595B"><path d="M35 0H13a4 4 0 0 0-4 4v40a4 4 0 0 0 4 4h22a4 4 0 0 0 4-4V4a4 4 0 0 0-4-4Zm2 8v30H11V8Zm0 36a2 2 0 0 1-2 2H13a2 2 0 0 1-2-2v-4h26ZM11 6V4a2 2 0 0 1 2-2h22a2 2 0 0 1 2 2v2Z"/><path d="M21 3h6v2h-6zM20 42h8v2h-8zM2 23.5a7.65 7.65 0 0 1 2.66-5.75l-1.32-1.5a9.54 9.54 0 0 0 0 14.5l1.32-1.5A7.65 7.65 0 0 1 2 23.5Z"/><path d="m7.67 19.75-1.34-1.5a7.08 7.08 0 0 0 0 10.5l1.34-1.5a5 5 0 0 1 0-7.5ZM44.66 16.25l-1.32 1.5a7.54 7.54 0 0 1 0 11.5l1.32 1.5a9.54 9.54 0 0 0 0-14.5Z"/><path d="m41.67 18.25-1.34 1.5a5 5 0 0 1 0 7.5l1.34 1.5a7.08 7.08 0 0 0 0-10.5Z"/></g></symbol><symbol id="appletv" viewBox="0 0 33.63 17.09"><path d="M9.44 2.74c.64-.77.95-1.75.88-2.74-.98.09-1.88.56-2.51 1.31a3.62 3.62 0 0 0-.9 2.63c.98.02 1.92-.43 2.53-1.2M10.26 4.12c-1.4-.08-2.58.8-3.25.8s-1.69-.76-2.79-.74c-1.47.04-2.8.86-3.5 2.15-1.5 2.6-.4 6.47 1.06 8.59.71 1.01 1.56 2.21 2.69 2.17s1.48-.7 2.77-.7 1.67.7 2.79.67 1.9-1.01 2.6-2.1c.5-.75.9-1.56 1.17-2.42a3.831 3.831 0 0 1-2.27-3.47c.02-1.33.71-2.55 1.83-3.26a3.977 3.977 0 0 0-3.1-1.7M19.19 2.1v2.86h2.28v1.88h-2.28v6.76c0 1.01.45 1.52 1.45 1.52.27 0 .55-.02.82-.06v1.9c-.45.07-.9.11-1.35.1-2.36 0-3.27-.92-3.27-3.22V6.89h-1.79V5h1.74V2.11h2.4ZM29.44 16.96h-2.5L22.74 5h2.49l2.95 9.61h.06L31.19 5h2.44l-4.19 11.96z" style="fill:#fff"/></symbol><symbol id="checkmark" viewBox="0 0 512 512"><path style="fill:#fff" d="M435.848 83.466 172.804 346.51l-96.652-96.652c-4.686-4.686-12.284-4.686-16.971 0l-28.284 28.284c-4.686 4.686-4.686 12.284 0 16.971l133.421 133.421c4.686 4.686 12.284 4.686 16.971 0l299.813-299.813c4.686-4.686 4.686-12.284 0-16.971l-28.284-28.284c-4.686-4.686-12.284-4.686-16.97 0z"/></symbol><symbol id="chevron-down" viewBox="0 0 31.1 17.8"><g style="enable-background:new 0 0 31.1 17.8"><path style="fill:#fff" d="M30.9 1.6c.1.2.2.4.2.6s-.1.5-.2.6L16.2 17.6c-.2.1-.4.2-.6.2s-.4-.1-.6-.2L.2 2.8c-.1-.1-.2-.3-.2-.6s.1-.4.2-.6L1.6.2c.2-.1.3-.2.6-.2s.4.1.6.2l12.7 12.7L28.3.2c.2-.1.4-.2.6-.2s.4.1.6.2l1.4 1.4z"/></g></symbol><symbol id="combine"><g fill="#58595B"><path d="M23.28 39.63H9.74a1 1 0 0 0 0 2h13.54a1 1 0 0 0 0-2ZM19.46 44.19h-5.83a1 1 0 0 0 0 2h5.83a1 1 0 0 0 0-2ZM16.51 0a16.5 16.5 0 0 0-8.68 30.54v3.62A3.2 3.2 0 0 0 11 37.35h11.17a3.19 3.19 0 0 0 3.19-3.19v-3.73A16.5 16.5 0 0 0 16.51 0Zm7.34 29a1 1 0 0 0-.49.86v4.29a1.19 1.19 0 0 1-1.19 1.19h-4.66V21.21l4.89-4.89A1 1 0 0 0 21 14.9l-4.47 4.47L12 14.9a1 1 0 1 0-1.42 1.42l4.89 4.89v14.14H11a1.19 1.19 0 0 1-1.19-1.19V30a1 1 0 0 0-.51-.87A14.52 14.52 0 1 1 23.85 29Z"/></g></symbol><symbol id="control" viewBox="0 0 48 48"><g style="enable-background:new 0 0 48 48"><path style="fill:none;stroke:#58595b;stroke-width:2;stroke-miterlimit:10" d="M38 7V4c0-1.7-1.3-3-3-3H13c-1.7 0-3 1.3-3 3v3M38 11V7H10v32h28v-3.9zM10 39v5c0 1.7 1.3 3 3 3h22c1.7 0 3-1.3 3-3v-5M21 4h6M20 43h8M4 17c-1.8 1.6-3 3.9-3 6.5s1.2 4.9 3 6.5M7 28c-1.2-1.1-2-2.7-2-4.5s.8-3.4 2-4.5M44 30c1.8-1.6 3-3.9 3-6.5s-1.2-4.9-3-6.5M41 19c1.2 1.1 2 2.7 2 4.5s-.8 3.4-2 4.5"/></g></symbol><symbol id="cookie_consent_dark" viewBox="0 0 157.2 121.7"><g style="enable-background:new 0 0 157.2 121.7"><g style="opacity:.1"><path d="M150.6 37.5c-.4.1-.7.2-1.1.3.1 1.5.2 3 .2 4.5 0 25.2-20.5 45.7-45.7 45.7-2 0-4-.1-6-.4-.8 2.4-1.8 4.7-3 7 3.8 1 7.7 1.5 11.7 1.5 25.2 0 45.7-20.5 45.7-45.7.1-4.4-.5-8.7-1.8-12.9z"/><path class="st1" d="M90.7 37c-.8.4-1.7.6-2.7.6h-.2c3.7 4.1 6.7 8.7 8.8 13.8-1.2-5.2-3.2-10-5.9-14.4zM81.9 32v-.4c0-1.5.5-2.8 1.4-3.9-3.1-3.1-6.6-5.8-10.4-8.1-1.4 1.5-2.7 3.2-3.9 4.9 4.7 1.9 9.1 4.5 13 7.6l-.1-.1zM54.8 108.6c-25.2 0-45.7-20.5-45.7-45.7 0-6 1.2-11.8 3.3-17.1-4.9 7.3-7.7 16-7.7 25.4 0 25.2 20.5 45.7 45.7 45.7 19.2 0 35.6-11.9 42.4-28.6-8.2 12.3-22.2 20.3-38 20.3z"/></g><path d="M79.6 54.3c-4.7 0-8.6 3.9-8.6 8.6 0 4.7 3.9 8.6 8.6 8.6 4.7 0 8.6-3.9 8.6-8.6.1-4.7-3.8-8.6-8.6-8.6zm0 12.5c-2.2 0-3.9-1.8-3.9-3.9 0-2.2 1.8-3.9 3.9-3.9 2.2 0 3.9 1.8 3.9 3.9.1 2.2-1.7 3.9-3.9 3.9zM33.9 56.7c0-3.6-2.9-6.5-6.5-6.5s-6.5 2.9-6.5 6.5 2.9 6.5 6.5 6.5 6.5-2.9 6.5-6.5zm-8.3 0c0-1 .8-1.8 1.8-1.8s1.8.8 1.8 1.8-.8 1.8-1.8 1.8-1.8-.8-1.8-1.8zM62.9 85.6c-2.4 0-4.4 2-4.4 4.4 0 2.4 2 4.4 4.4 4.4s4.4-2 4.4-4.4c.1-2.4-1.9-4.4-4.4-4.4zm0 4.7c-.1 0-.3-.1-.3-.3 0-.1.1-.3.3-.3.1 0 .3.1.3.3 0 .2-.1.3-.3.3zM50.4 54.3c-2.4 0-4.4 2-4.4 4.4 0 2.4 2 4.4 4.4 4.4 2.4 0 4.4-2 4.4-4.4 0-2.4-2-4.4-4.4-4.4zm0 4.7c-.1 0-.3-.1-.3-.3 0-.1.1-.3.3-.3.1 0 .3.1.3.3 0 .2-.2.3-.3.3zM35.8 79.4c-5.9 0-10.7 4.8-10.7 10.7 0 5.9 4.8 10.7 10.7 10.7 5.9 0 10.7-4.8 10.7-10.7 0-5.9-4.8-10.7-10.7-10.7zm0 16.7c-3.3 0-6-2.7-6-6s2.7-6 6-6 6 2.7 6 6-2.7 6-6 6zM115.1 71c-4.7 0-8.6 3.9-8.6 8.6 0 4.7 3.9 8.6 8.6 8.6 4.7 0 8.6-3.9 8.6-8.6.1-4.7-3.8-8.6-8.6-8.6zm0 12.6c-2.2 0-3.9-1.8-3.9-3.9 0-2.2 1.8-3.9 3.9-3.9 2.2 0 3.9 1.8 3.9 3.9.1 2.1-1.7 3.9-3.9 3.9zM120.4 20.9c-4.2 0-7.6 3.4-7.6 7.6 0 4.2 3.4 7.6 7.6 7.6 4.2 0 7.6-3.4 7.6-7.6-.1-4.2-3.5-7.6-7.6-7.6zm0 10.4c-1.6 0-2.9-1.3-2.9-2.9 0-1.6 1.3-2.9 2.9-2.9 1.6 0 2.9 1.3 2.9 2.9-.1 1.6-1.3 2.9-2.9 2.9zM138.1 58.5c-2.4 0-4.4 2-4.4 4.4s2 4.4 4.4 4.4 4.4-2 4.4-4.4-1.9-4.4-4.4-4.4zm0 4.7c-.1 0-.3-.1-.3-.3 0-.1.1-.3.3-.3.1 0 .3.1.3.3 0 .2-.1.3-.3.3zM115.1 59c2.4 0 4.4-2 4.4-4.4 0-2.4-2-4.4-4.4-4.4-2.4 0-4.4 2-4.4 4.4 0 2.4 2 4.4 4.4 4.4zm0-4.7c.1 0 .3.1.3.3 0 .1-.1.3-.3.3-.1 0-.3-.1-.3-.3.1-.2.2-.3.3-.3z"/><path d="M154.3 33.6c-.2-.6-.7-1.1-1.3-1.4-.6-.3-1.3-.2-1.9.1-1.4.7-3 1.1-4.6 1.1-5.6 0-10.2-4.6-10.2-10.2 0-1.1.2-2.3.6-3.4.3-.7.1-1.6-.3-2.2-.5-.6-1.2-1-2-.9H134c-4.4 0-8.3-2.8-9.7-7-.4-1.1-1.6-1.8-2.7-1.6-5.1 1.1-10.1-1.8-11.8-6.5-.3-.9-1.2-1.5-2.2-1.6h-.8C89.6 0 73.9 8.5 64.5 22.9c-4.5-1.3-9.2-2-14.2-2C22.6 20.9 0 43.5 0 71.3s22.6 50.4 50.4 50.4c17.7 0 33.2-9.1 42.2-22.9 4.6 1.3 9.3 2 14.2 2 27.8 0 50.4-22.6 50.4-50.4 0-5.7-1-11.4-2.9-16.8zM50.4 117C25.2 117 4.7 96.5 4.7 71.3c0-25.2 20.5-45.7 45.7-45.7 25.2 0 45.7 20.5 45.7 45.7 0 25.2-20.5 45.7-45.7 45.7zm31.5-85v-.4c0-3.3 2.7-6 6-6s6 2.7 6 6-2.7 6-6 6h-.2c-1.7-2-3.6-3.9-5.8-5.6zm24.9 64.1c-4 0-7.9-.5-11.7-1.5 3.6-7 5.7-14.9 5.7-23.3 0-11-3.6-21.2-9.6-29.5 4.3-1.4 7.5-5.4 7.5-10.2 0-5.9-4.8-10.7-10.7-10.7-5 0-9.2 3.4-10.4 8-2.7-1.7-5.5-3.2-8.5-4.4C77.5 12.3 91.1 5 106 4.7c2.7 5.4 8.4 8.8 14.6 8.3 2.1 4.4 6.3 7.5 11.2 8.2-.1.7-.1 1.3-.1 2 0 8.2 6.7 14.9 14.9 14.9 1.4 0 2.8-.2 4.2-.6 1.2 4.2 1.8 8.5 1.8 12.9-.1 25.2-20.6 45.7-45.8 45.7z"/></g></symbol><symbol id="cookie_consent_light" viewBox="0 0 157.2 121.7"><g style="enable-background:new 0 0 157.2 121.7"><g style="opacity:.2"><path style="fill:#020203" d="M150.6 30.1c-.4.1-.7.2-1.1.3.1 1.5.2 3 .2 4.5 0 25.2-20.5 45.7-45.7 45.7-2 0-4-.1-6-.4-.8 2.4-1.8 4.7-3 7 3.8 1 7.7 1.5 11.7 1.5 25.2 0 45.7-20.5 45.7-45.7.1-4.4-.5-8.8-1.8-12.9zM90.7 29.5c-.8.4-1.7.6-2.7.6h-.2c3.7 4.1 6.7 8.7 8.8 13.8-1.2-5.1-3.2-10-5.9-14.4zM81.9 24.6v-.4c0-1.5.5-2.8 1.4-3.9-3.1-3.1-6.6-5.8-10.4-8.1-1.4 1.5-2.7 3.2-3.9 4.9 4.7 1.9 9.1 4.5 13 7.6 0-.1 0-.1-.1-.1zM54.8 101.2c-25.2 0-45.7-20.5-45.7-45.7 0-6 1.2-11.8 3.3-17.1-4.9 7.3-7.7 16-7.7 25.4 0 25.2 20.5 45.7 45.7 45.7 19.2 0 35.6-11.9 42.4-28.6-8.2 12.2-22.2 20.3-38 20.3z"/></g><path style="fill:#fff" d="M79.6 54.3c-4.7 0-8.6 3.9-8.6 8.6 0 4.7 3.9 8.6 8.6 8.6 4.7 0 8.6-3.9 8.6-8.6.1-4.7-3.8-8.6-8.6-8.6zm0 12.5c-2.2 0-3.9-1.8-3.9-3.9 0-2.2 1.8-3.9 3.9-3.9 2.2 0 3.9 1.8 3.9 3.9.1 2.2-1.7 3.9-3.9 3.9zM33.9 56.7c0-3.6-2.9-6.5-6.5-6.5s-6.5 2.9-6.5 6.5 2.9 6.5 6.5 6.5 6.5-2.9 6.5-6.5zm-8.3 0c0-1 .8-1.8 1.8-1.8s1.8.8 1.8 1.8-.8 1.8-1.8 1.8-1.8-.8-1.8-1.8zM62.9 85.6c-2.4 0-4.4 2-4.4 4.4 0 2.4 2 4.4 4.4 4.4s4.4-2 4.4-4.4c.1-2.4-1.9-4.4-4.4-4.4zm0 4.7c-.1 0-.3-.1-.3-.3 0-.1.1-.3.3-.3.1 0 .3.1.3.3 0 .2-.1.3-.3.3zM50.4 54.3c-2.4 0-4.4 2-4.4 4.4 0 2.4 2 4.4 4.4 4.4 2.4 0 4.4-2 4.4-4.4 0-2.4-2-4.4-4.4-4.4zm0 4.7c-.1 0-.3-.1-.3-.3 0-.1.1-.3.3-.3.1 0 .3.1.3.3 0 .2-.2.3-.3.3zM35.8 79.4c-5.9 0-10.7 4.8-10.7 10.7 0 5.9 4.8 10.7 10.7 10.7 5.9 0 10.7-4.8 10.7-10.7 0-5.9-4.8-10.7-10.7-10.7zm0 16.7c-3.3 0-6-2.7-6-6s2.7-6 6-6 6 2.7 6 6-2.7 6-6 6zM115.1 71c-4.7 0-8.6 3.9-8.6 8.6 0 4.7 3.9 8.6 8.6 8.6 4.7 0 8.6-3.9 8.6-8.6.1-4.7-3.8-8.6-8.6-8.6zm0 12.6c-2.2 0-3.9-1.8-3.9-3.9 0-2.2 1.8-3.9 3.9-3.9 2.2 0 3.9 1.8 3.9 3.9.1 2.1-1.7 3.9-3.9 3.9zM120.4 20.9c-4.2 0-7.6 3.4-7.6 7.6 0 4.2 3.4 7.6 7.6 7.6 4.2 0 7.6-3.4 7.6-7.6-.1-4.2-3.5-7.6-7.6-7.6zm0 10.4c-1.6 0-2.9-1.3-2.9-2.9 0-1.6 1.3-2.9 2.9-2.9 1.6 0 2.9 1.3 2.9 2.9-.1 1.6-1.3 2.9-2.9 2.9zM138.1 58.5c-2.4 0-4.4 2-4.4 4.4s2 4.4 4.4 4.4 4.4-2 4.4-4.4-1.9-4.4-4.4-4.4zm0 4.7c-.1 0-.3-.1-.3-.3 0-.1.1-.3.3-.3.1 0 .3.1.3.3 0 .2-.1.3-.3.3zM115.1 59c2.4 0 4.4-2 4.4-4.4 0-2.4-2-4.4-4.4-4.4-2.4 0-4.4 2-4.4 4.4 0 2.4 2 4.4 4.4 4.4zm0-4.7c.1 0 .3.1.3.3 0 .1-.1.3-.3.3-.1 0-.3-.1-.3-.3.1-.2.2-.3.3-.3z"/><path style="fill:#fff" d="M154.3 33.6c-.2-.6-.7-1.1-1.3-1.4-.6-.3-1.3-.2-1.9.1-1.4.7-3 1.1-4.6 1.1-5.6 0-10.2-4.6-10.2-10.2 0-1.1.2-2.3.6-3.4.3-.7.1-1.6-.3-2.2-.5-.6-1.2-1-2-.9H134c-4.4 0-8.3-2.8-9.7-7-.4-1.1-1.6-1.8-2.7-1.6-5.1 1.1-10.1-1.8-11.8-6.5-.3-.9-1.2-1.5-2.2-1.6h-.8C89.6 0 73.9 8.5 64.5 22.9c-4.5-1.3-9.2-2-14.2-2C22.6 20.9 0 43.5 0 71.3s22.6 50.4 50.4 50.4c17.7 0 33.2-9.1 42.2-22.9 4.6 1.3 9.3 2 14.2 2 27.8 0 50.4-22.6 50.4-50.4 0-5.7-1-11.4-2.9-16.8zM50.4 117C25.2 117 4.7 96.5 4.7 71.3c0-25.2 20.5-45.7 45.7-45.7 25.2 0 45.7 20.5 45.7 45.7 0 25.2-20.5 45.7-45.7 45.7zm31.5-85v-.4c0-3.3 2.7-6 6-6s6 2.7 6 6-2.7 6-6 6h-.2c-1.7-2-3.6-3.9-5.8-5.6zm24.9 64.1c-4 0-7.9-.5-11.7-1.5 3.6-7 5.7-14.9 5.7-23.3 0-11-3.6-21.2-9.6-29.5 4.3-1.4 7.5-5.4 7.5-10.2 0-5.9-4.8-10.7-10.7-10.7-5 0-9.2 3.4-10.4 8-2.7-1.7-5.5-3.2-8.5-4.4C77.5 12.3 91.1 5 106 4.7c2.7 5.4 8.4 8.8 14.6 8.3 2.1 4.4 6.3 7.5 11.2 8.2-.1.7-.1 1.3-.1 2 0 8.2 6.7 14.9 14.9 14.9 1.4 0 2.8-.2 4.2-.6 1.2 4.2 1.8 8.5 1.8 12.9-.1 25.2-20.6 45.7-45.8 45.7z"/></g></symbol><symbol id="enveloppe" viewBox="0 0 27.98 29.99"><path d="M27.97 29.56s.01-.04.01-.06V10.46s0-.05-.01-.08c0-.02 0-.04-.02-.06 0-.02-.01-.03-.02-.05s-.03-.05-.04-.07c0-.01-.01-.03-.02-.04h-.01s-.03-.02-.04-.03c0 0-.01-.02-.02-.03L25 8.03V2.5c0-.28-.22-.5-.5-.5h-7.64L14.28.1a.51.51 0 0 0-.6 0L11.11 2H3.48c-.28 0-.5.22-.5.5v5.53L.18 10.1s-.01.02-.02.03c-.01.01-.03.02-.04.03H.11s0 .03-.02.04c-.02.02-.03.04-.04.07 0 .02-.02.03-.02.05s-.01.04-.02.06V29.56c0 .03 0 .07.02.1.01.03.03.06.04.09 0 .02 0 .04.02.05 0 .01.02.01.03.02.02.03.05.05.08.07.02.02.05.04.08.05l.09.03s.06.02.1.02h27.01c.08 0 .14-.02.21-.05.02 0 .03-.02.05-.03a.4.4 0 0 0 .12-.1s.02-.01.02-.02c.01-.02.01-.03.02-.05.02-.03.03-.06.04-.09s.02-.07.02-.1ZM.98 11.61l10.37 9.22L.98 28.51v-16.9Zm13 8.51L25.97 29H1.99l11.99-8.88Zm2.6.68 10.4-9.19v16.9l-10.4-7.7Zm10.11-10.28-1.71 1.51V9.26l1.71 1.26Zm-12.71-9.4 1.18.88h-2.37l1.18-.88ZM3.98 3h20v9.93l-1.51 1.34-6.71 5.93-.97-.72-.51-.38a.51.51 0 0 0-.6 0l-.63.47-.88.65-8.19-7.28V3Zm-1 9.05-1.71-1.52 1.71-1.26v2.78Z"/><path d="M7.48 7h13c.28 0 .5-.22.5-.5s-.22-.5-.5-.5h-13c-.28 0-.5.22-.5.5s.22.5.5.5ZM7.48 10h13c.28 0 .5-.22.5-.5s-.22-.5-.5-.5h-13c-.28 0-.5.22-.5.5s.22.5.5.5ZM20.98 12.5c0-.28-.22-.5-.5-.5h-13c-.28 0-.5.22-.5.5s.22.5.5.5h13c.28 0 .5-.22.5-.5ZM19.98 15.5c0-.28-.22-.5-.5-.5h-11c-.28 0-.5.22-.5.5s.22.5.5.5h11c.28 0 .5-.22.5-.5Z"/></symbol><symbol id="equalise"><g fill="#58595B"><path d="M5 0H3v19H0v5h8v-5H5Zm1 22H2v-1h4ZM3 25h2v8H3zM15 0h-2v6h-3v5h8V6h-3Zm1 9h-4V8h4ZM13 12h2v21h-2zM25 0h-2v15h-3v5h8v-5h-3Zm1 18h-4v-1h4ZM23 21h2v12h-2zM33 15h2v18h-2zM35 9V0h-2v9h-3v5h8V9Zm1 3h-4v-1h4Z"/></g></symbol><symbol id="esg" viewBox="0 0 772.4 139.7"><g style="enable-background:new 0 0 772.4 139.7"><path style="fill:#373636" d="M224.2 129.4h-5.3v3.4h5.9v2.7h-9.2v-14.4h8.9v2.7h-5.6v3h5.3v2.6zM236.7 132.1c0 1.4 0 2.5.1 3.3H234l-.1-1.5h-.1c-.4.6-1.4 1.7-3.3 1.7-2.1 0-3.7-1.3-3.7-4.5V125h3.3v5.6c0 1.5.5 2.4 1.6 2.4.9 0 1.4-.6 1.6-1.1.1-.2.1-.4.1-.7V125h3.2v7.1h.1zM239.3 128.5c0-1.5 0-2.5-.1-3.4h2.8l.1 1.9h.1c.5-1.5 1.8-2.1 2.8-2.1h.7v3.1c-.2-.1-.5-.1-.9-.1-1.2 0-2 .6-2.2 1.6 0 .2-.1.5-.1.7v5.3h-3.2v-7zM257.6 130.1c0 3.8-2.7 5.5-5.5 5.5-3 0-5.4-2-5.4-5.4 0-3.4 2.2-5.5 5.5-5.5 3.3.1 5.4 2.3 5.4 5.4m-7.5.1c0 1.8.7 3.1 2.1 3.1 1.3 0 2.1-1.3 2.1-3.1 0-1.6-.6-3.1-2.1-3.1s-2.1 1.6-2.1 3.1M259.6 128.5c0-1.4 0-2.5-.1-3.5h2.8l.1 1.4c.8-1.1 2-1.7 3.5-1.7 2.3 0 4.3 2 4.3 5.3 0 3.8-2.4 5.6-4.7 5.6-1.3 0-2.2-.5-2.7-1.2v5.2h-3.2v-11.1zm3.2 2.5c0 .3 0 .5.1.7.2.9 1 1.5 1.9 1.5 1.4 0 2.2-1.2 2.2-2.9s-.7-2.9-2.2-2.9c-.9 0-1.7.7-1.9 1.6 0 .2-.1.4-.1.6v1.4zM274.9 131.3c.1 1.3 1.4 2 2.9 2 1.1 0 2-.1 2.9-.4l.4 2.2c-1.1.4-2.4.7-3.8.7-3.5 0-5.5-2.1-5.5-5.3 0-2.6 1.6-5.5 5.2-5.5 3.4 0 4.6 2.6 4.6 5.2 0 .6-.1 1-.1 1.3h-6.6v-.2zm3.8-2.2c0-.8-.3-2.1-1.8-2.1-1.4 0-1.9 1.2-2 2.1h3.8zM283.7 132.6c.6.4 1.8.8 2.8.8 1 0 1.4-.3 1.4-.9 0-.5-.3-.8-1.5-1.2-2.1-.7-3-1.9-3-3.1 0-2 1.7-3.4 4.2-3.4 1.2 0 2.3.3 2.9.6l-.6 2.2c-.5-.3-1.4-.6-2.3-.6-.8 0-1.2.3-1.2.9 0 .5.4.7 1.7 1.2 2 .7 2.8 1.7 2.8 3.2 0 1.9-1.5 3.4-4.5 3.4-1.4 0-2.6-.3-3.4-.7l.7-2.4zM295.4 131.3c.1 1.3 1.4 2 2.9 2 1.1 0 2-.1 2.9-.4l.4 2.2c-1.1.4-2.4.7-3.8.7-3.5 0-5.5-2.1-5.5-5.3 0-2.6 1.6-5.5 5.3-5.5 3.4 0 4.6 2.6 4.6 5.2 0 .6-.1 1-.1 1.3h-6.7v-.2zm3.8-2.2c0-.8-.3-2.1-1.8-2.1-1.4 0-1.9 1.2-2 2.1h3.8zM312.1 121.1v8.2c0 2.5.9 3.7 2.6 3.7 1.7 0 2.6-1.2 2.6-3.7v-8.2h3.2v8c0 4.4-2.2 6.5-6 6.5-3.6 0-5.7-2-5.7-6.6v-8h3.3v.1zM323.2 128.4c0-1.3 0-2.4-.1-3.3h2.8l.1 1.4h.1c.4-.7 1.5-1.7 3.2-1.7 2.1 0 3.7 1.4 3.7 4.5v6.2h-3.2v-5.8c0-1.3-.5-2.3-1.6-2.3-.9 0-1.4.6-1.6 1.2-.1.2-.1.5-.1.8v6h-3.2v-7h-.1zM338.9 122.2c0 .9-.7 1.6-1.7 1.6s-1.7-.7-1.7-1.6c0-.9.7-1.6 1.7-1.6 1-.1 1.7.6 1.7 1.6m-3.3 2.9h3.2v10.4h-3.2v-10.4zM343.9 131.3c.1 1.3 1.4 2 2.9 2 1.1 0 2-.1 2.9-.4l.4 2.2c-1.1.4-2.4.7-3.8.7-3.5 0-5.5-2.1-5.5-5.3 0-2.6 1.6-5.5 5.3-5.5 3.4 0 4.6 2.6 4.6 5.2 0 .6-.1 1-.1 1.3h-6.7v-.2zm3.8-2.2c0-.8-.3-2.1-1.8-2.1-1.4 0-1.9 1.2-2 2.1h3.8z"/><path style="fill:#164194" d="M201.5 0H365v109H201.5V0z"/><path style="fill:#ffed00" d="m279.8 23.7 3.4-2.5 3.5 2.5-1.3-4 3.5-2.5h-4.4l-1.3-4.2-1.3 4.2h-4.3l3.5 2.5-1.3 4zM261.9 28.5l3.5-2.5 3.4 2.5-1.3-4L271 22h-4.3l-1.3-4.2L264 22h-4.3l3.5 2.5-1.3 4zM252.3 30.9l-1.3 4.2h-4.3l3.5 2.5-1.3 4 3.4-2.5 3.5 2.5-1.4-4 3.5-2.5h-4.3l-1.3-4.2zM247.5 57l3.5 2.5-1.3-4.1 3.5-2.5h-4.4l-1.3-4.1-1.3 4.1h-4.3l3.5 2.5-1.3 4.1 3.4-2.5zM253.6 70.8l-1.3-4.2-1.3 4.2h-4.3l3.5 2.5-1.3 4.1 3.4-2.6 3.5 2.6-1.4-4.1 3.5-2.5h-4.3zM266.7 83.9l-1.3-4.2-1.3 4.2h-4.3l3.5 2.5-1.4 4 3.5-2.5 3.4 2.5-1.3-4 3.5-2.5h-4.3zM284.5 88.6l-1.3-4.1-1.3 4.1h-4.3l3.5 2.5-1.3 4.1 3.4-2.5 3.5 2.5-1.3-4.1 3.5-2.5h-4.4zM302.4 83.9l-1.3-4.2-1.4 4.2h-4.3l3.5 2.5-1.3 4 3.5-2.5 3.4 2.5-1.3-4 3.5-2.5h-4.3zM315.5 70.8l-1.4-4.2-1.3 4.2h-4.3l3.5 2.5-1.3 4.1 3.4-2.6 3.5 2.6-1.3-4.1 3.5-2.5h-4.3zM324.5 52.8h-4.3l-1.3-4.1-1.3 4.1h-4.4l3.6 2.6-1.4 4 3.5-2.5 3.4 2.5-1.3-4 3.5-2.6zM310.7 41.6l3.4-2.5 3.5 2.5-1.3-4.1 3.5-2.5h-4.3l-1.4-4.1-1.3 4.1h-4.3l3.5 2.5-1.3 4.1zM301.1 17.8l-1.3 4.2h-4.3l3.5 2.5-1.3 4.1 3.4-2.6 3.5 2.6-1.4-4.1 3.6-2.5h-4.4l-1.3-4.2z"/><path style="fill:#fff" d="M413.6 0h358.8v139.7H413.6V0z"/><clipPath id="b"><use xlink:href="#a" style="overflow:visible"/></clipPath><path style="clip-path:url(#b);fill:#164194" d="m490.7 0 47.6 139.7h234.1V0H490.7z"/><path style="clip-path:url(#b);fill:#f6f6f3" d="M491.3 0h-77.7v139.7h125.2L491.3 0z"/><path style="fill:#f6f6f3" d="M551.4 69.1h-5.5l-9.2-26.7h5l7 20.3 7-20.3h5l-9.3 26.7zM567.8 39.8h.6v28.9h-4.7V40.2l4.1-.4zM591.5 65.2l-2.1 3.9c-1.5 0-3.1-.5-4.7-2.2-.8.6-1.5 1.2-2.4 1.5-.9.4-1.9.6-3.2.6-1.4 0-3.1-.3-4.5-1.2-1.4-1-2.4-2.6-2.4-5.4 0-1.8.4-3.3 1.6-4.3 1.1-1 2.9-1.5 5.7-1.5 1.1 0 2.4 0 4.3.2v-1c0-1.4-.5-2.4-1.2-3-.7-.6-1.7-.8-2.9-.8-1.8 0-3.9.6-5.6 1.4l-1.1-4.1c2.2-1 5-1.8 7.6-1.8 2.1 0 4 .4 5.4 1.5 1.4 1.1 2.3 2.8 2.3 5.3V62c0 1 .3 1.7.9 2.1.6.6 1.4.9 2.3 1.1zm-7.7-3.6v-1.3c-2.2 0-3.9 0-5 .2-1.2.3-1.8.9-1.8 2.1 0 1.7 1.2 2.6 2.9 2.6.6 0 1.6-.1 2.4-.6.8-.5 1.5-1.4 1.5-3zM612.5 65.2l-2.1 3.9c-1.5 0-3.1-.5-4.7-2.2-.8.6-1.5 1.2-2.4 1.5-.9.4-1.9.6-3.2.6-1.4 0-3.1-.3-4.5-1.2-1.4-1-2.4-2.6-2.4-5.4 0-1.8.4-3.3 1.6-4.3 1.1-1 2.9-1.5 5.7-1.5 1.1 0 2.4 0 4.3.2v-1c0-1.4-.5-2.4-1.2-3-.7-.6-1.7-.8-2.9-.8-1.8 0-3.9.6-5.6 1.4l-1.1-4.1c2.2-1 5-1.8 7.6-1.8 2.1 0 4 .4 5.4 1.5 1.4 1.1 2.3 2.8 2.3 5.3V62c0 1 .3 1.7.9 2.1.6.6 1.4.9 2.3 1.1zm-7.7-3.6v-1.3c-2.2 0-3.9 0-5 .2-1.2.3-1.8.9-1.8 2.1 0 1.7 1.2 2.6 2.9 2.6.6 0 1.6-.1 2.4-.6.8-.5 1.5-1.4 1.5-3zM619.2 48l.5 1.6c1.9-1.3 4.3-2 6.6-2 2 0 3.9.5 5.3 1.7s2.3 3 2.3 5.6v13.8h-4.7V56.3c0-1.5-.6-2.6-1.4-3.3s-2-1-3.3-1c-1.6 0-3.2.5-4.5 1.3v15.4h-4.7V48h3.9zM652.7 68.7l-.8-1.6c-1.6 1.2-3.3 2-5.6 2-3 0-5.2-1.2-6.7-3s-2.2-4.3-2.2-6.9c0-3.9 1.2-6.8 3.1-8.8 2-1.9 4.7-2.9 7.9-2.9.9 0 2 .1 3.1.2v-7.6l4-.4h.7v28.9h-3.5zm-1.2-5.4v-11c-1.2-.3-2.4-.4-3.3-.4-1.8 0-3.3.5-4.3 1.6s-1.6 2.7-1.6 4.8c0 1.6.4 3.1 1.3 4.3s2.1 2 3.7 2c1.4 0 3-.5 4.2-1.3zM676.6 63.3v4.5c-1.8.9-4.1 1.2-5.9 1.2-2.9 0-5.5-.9-7.5-2.7-2-1.8-3.2-4.5-3.2-8.1 0-3.5 1.2-6.2 2.9-8 1.7-1.8 4.1-2.8 6.4-2.8.7 0 1.8.1 3.1.5 1.2.4 2.6 1.2 3.6 2.6 1 1.4 1.7 3.4 1.7 6.3v3.1H665c.4 1.7 1.2 2.8 2.4 3.5 1.1.7 2.4 1 3.8 1 1.8 0 3.6-.5 5.2-1.4l.2.3zM665 56.4h8.4c-.1-1.5-.6-2.6-1.4-3.3-.7-.7-1.6-1-2.5-1-1 0-1.9.3-2.7 1-.9.7-1.5 1.8-1.8 3.3zM695.2 48.4l-1.5 4.7c-1.2-.7-2.3-1-3.5-1-1.5 0-2.9.6-4.2 1.5v15.1h-4.7V48h4l.5 1.7c1.4-1.2 3.2-2.1 5.3-2.1.6 0 1.3 0 2.1.2.7.1 1.4.3 2 .6zM714 63.3v4.5c-1.8.9-4.1 1.2-5.9 1.2-2.9 0-5.5-.9-7.5-2.7-2-1.8-3.2-4.5-3.2-8.1 0-3.5 1.2-6.2 2.9-8 1.7-1.8 4.1-2.8 6.4-2.8.7 0 1.8.1 3.1.5 1.2.4 2.6 1.2 3.6 2.6 1 1.4 1.7 3.4 1.7 6.3v3.1h-12.6c.4 1.7 1.2 2.8 2.4 3.5 1.1.7 2.4 1 3.8 1 1.8 0 3.6-.5 5.2-1.4l.1.3zm-11.6-6.9h8.4c-.1-1.5-.6-2.6-1.4-3.3-.7-.7-1.6-1-2.5-1-1 0-1.9.3-2.7 1-.9.7-1.5 1.8-1.8 3.3zM722.7 48l.5 1.6c1.9-1.3 4.3-2 6.6-2 2 0 3.9.5 5.3 1.7s2.3 3 2.3 5.6v13.8h-4.7V56.3c0-1.5-.6-2.6-1.4-3.3s-2-1-3.3-1c-1.6 0-3.2.5-4.5 1.3v15.4h-4.7V48h3.9zM543.9 81.3c0-.7.5-1.2 1.2-1.2s1.2.5 1.2 1.2c0 .6-.6 1.2-1.2 1.2s-1.2-.6-1.2-1.2zm2.1 3.1V96h-1.7V84.4h1.7zM549 94.1c.8.2 1.9.5 2.7.5 1.2 0 2.9-.6 2.9-1.9 0-.6-.3-1-.9-1.3-.7-.4-1.9-.8-2.9-1.3-1.2-.6-1.8-1.6-1.8-2.8 0-2.2 1.8-3 3.9-3 .8 0 1.7.1 2.3.3v1.6h-.1c-.6-.2-1.7-.4-2.5-.4-1 0-2 .3-2 1.3 0 .6.4 1.1.9 1.4.7.5 2.1.9 3.2 1.4 1.2.6 1.5 1.3 1.5 2.5s-.6 2.2-1.5 2.8c-.9.6-2.1.9-3.2.9-1 0-1.9-.2-2.6-.5v-1.5zM577.2 96h-2.1l-2.6-8.8L570 96h-2.1l-3.6-11.5h1.7l3 9.6 2.9-9.6h1.6l2.9 9.6 3.1-9.6h1.7l-4 11.5zM591 90.6h-7.2c.2 2.4 1.6 4 3.8 4 1 0 2.1-.3 3.1-.8v1.6c-1.2.6-2.2.8-3.3.8-3.3 0-5.4-2.4-5.4-6.1 0-3.3 1.6-5.8 5-5.8 3 0 3.9 2.2 3.9 4.9v1.4zm-7.1-1.5h5.4c0-1.8-.5-3.3-2.3-3.3-1.8 0-2.8 1.4-3.1 3.3zM594.8 84.4l.4 1.3c.9-1 1.8-1.5 2.8-1.5.3 0 .6 0 1 .1.3.1.7.2.9.3l-.6 1.5c-.4-.2-1.1-.4-1.6-.4-1 0-1.8.6-2.4 1.5V96h-1.7V84.4h1.2zM610.7 94.7l-.7 1.5c-.6 0-1.3-.4-1.9-.9-.7-.5-1.4-1.2-2-2-.6-.7-1.2-1.4-1.6-2-.2-.3-.4-.5-.5-.7-.1-.2-.2-.3-.2-.4V96H602V80.2l1.6-.3h.1v10l4.6-5.5h2.2l-4.7 5.6c.1.3.4.8 1 1.4.5.6 1.2 1.4 1.9 2s1.4 1.1 2 1.3z"/><path style="fill:#164194" d="M494.8 70.4c-3.1-2.4-4.5 0-6.5-.1-1.6-.1-3.2-2.8-4.5-2.1-2.4 1.2 1 5.6 2.4 6.5 1.3.8 3 1.5 3.4 1.7 2 .9 2.7 2.3 3 4.4.1.5 0 1.6-.1 2.1-.9 3.8-7.5 7.2-11.3 4.6-1.8-1.2-3.4-2.8-4-5.6-1-5-4.6-8.6-5.8-13.5-.7-3-1.2-6.1-2-9-.8-3.1-1.6-6.1-2.2-8.9-.6-2.6-1.8-6.5-2.7-8.8-3.6-9.5-5.3-8.8-5.3-8.8s1.3 2.6 6.1 25.9c.2 1 1.9 11.2 3.2 14.6.5 1.2 1.3 3.8 1.8 4.9 1.5 3.3 5.6 8.4 5.8 12.9.2 2.6.5 4.8.5 6.8 0 .6.3 3 .7 4 1 2.8 8.9 11.7 17.4 11.7v-6.8c-8.4 0-16.3-4.7-16.5-5.2-.1-.2.4-3.4 1-4.9 1.1-2.8 3.2-5.3 6.8-5.6 4.1-.3 6.5.9 8.7.9l.1-21.7zM458.3 45.8c-.3 5.1-8.2 12-10.6 16.5-1.2 2.2-2.7 6-3.1 8.1-1 6.1.3 9.8 1.8 13.4 2.6 6.2-.4 8.5 1.6 7.2 2.5-2.1 2.1-6.8 1.9-9.8-.1-2.4-.3-5.2.1-8.1.7-5.4 4-11.2 6.8-15.3 3.3-4.8 2.1-9.8 1.5-12M459.9 60.2s.8 4-2.7 14.4c-9.3 27.1 8.5 29.6 13.5 36 0 0 2-2.8-6.1-11.6-2.9-3.2-5.6-10.3-3.3-20.5 3.3-14.7-1.4-18.3-1.4-18.3M442.3 42.5c-.4-1.6-.6-3-.5-4.3.4-6.4 6.2-8.9 7.6-9.9 0 0 2.6-1.8 2.9-3.6 0 0 2.7 6.7-3.4 10.5-3 2-5.1 4.3-6.6 7.3M456.9 36.3c.3.6 2.7 4.1-7.1 12.2s-6.7 13.9-6.7 13.9-10.4-5.8 1.6-15.8 9.6-12.1 9.6-12.1 1.7-.1 2.6 1.8M474.9 41.8c.1-.4.3-.1.8-.3.5-.4.9-1.1 1.7-1.4.5-.2 1.3-.1 1.8.1.3.1.1.9-.1 1.2-.5.4-2.1-.3-2.1.9.1 1.9 2.6-.1 3.9 0 .6 4.6-7.2 3.4-6-.5m-5.3-2.4c1.7.2 2.8 5.5 6.7 6.7 2.9.8 5.9.4 6.6 2.1-1.3.7-.3 3 1.1 2.6 1.1-3 1.6-15-14.4-11.4"/><path style="fill:#ffed00" d="M0 80.4h145.5v9H0z"/><path style="fill:#164194" d="M0 1h41.8v14H14.1v11.4h27.7v13.4H14.1v11.4h27.7v14.1H0V1zM52.1 47.8c5.6 2.6 10.7 4.4 16.9 4.4 3.7 0 6.4-.7 8.1-1.8 1.7-1.1 2.5-2.5 2.5-4.1 0-2.3-1.9-3.9-4.6-5.2-1.4-.6-3-1.3-4.7-1.9-3.6-1.2-7.3-2.6-10.8-4.7-3.6-2.1-6.4-4.9-8.1-8.9-.9-2-1.3-4.4-1.3-7.2 0-7.2 3.1-11.8 7.5-14.6C62 1 67.7 0 73.1 0c6.2 0 11.8 1.4 15.5 2.7v13l-.1.2c-1.1-.3-3.1-.9-5.7-1.3s-5.6-.8-8.6-.8c-2.6 0-5.1.3-7.1 1-1.9.7-3.2 1.9-3.2 3.8 0 2.3 1.9 3.9 4.8 5.3 1.4.7 3.1 1.4 5 2 3.7 1.4 7.6 2.9 11.3 4.9 3.7 2 6.7 4.7 8.5 8.4.9 1.9 1.3 4.1 1.3 6.6 0 6.6-3.3 11.7-8.2 15.1-4.9 3.5-11.4 5.3-17.9 5.3-6.1 0-12-1.6-16.5-4.9V47.8zM103 1h41.8v14h-27.7v11.4h27.7v13.4h-27.7v25.5H103V1zM1.6 102.8v13.6H.1v-13.6h1.5zM6.2 105.8v10.6H4.7v-13.6h1.6l6.3 10.5v-10.5h1.5v13.6h-1.5l-6.4-10.6zM15.8 102.8h1.6l3.9 11.9 3.9-11.9h1.6l-4.5 13.6h-2l-4.5-13.6zM28.5 102.8h7.8v1.5H30v4.6h6.3v1.5H30v4.6h6.3v1.5h-7.8v-13.7zM37.7 114.6c.7.3 2 .6 2.9.6 1.5 0 3-.6 3-2.2 0-.9-.4-1.4-1.1-1.9-.6-.4-3.1-1.6-3.6-2.1-.6-.5-1-1.4-1-2.6 0-2.6 1.7-3.7 4-3.7.8 0 1.6.1 2.3.4v1.4c-.6-.1-1.4-.3-2.2-.3-1.4 0-2.6.5-2.6 2.1 0 .7.2 1 .6 1.4.6.6 2.7 1.5 3.6 2.2 1.1.8 1.6 1.3 1.6 2.8 0 2.7-2.2 4.1-4.6 4.1-.9 0-1.9-.2-2.6-.6v-1.6zM46.3 102.8h9.5v1.5h-4v12.1h-1.5v-12.1h-4v-1.5zM57.8 102.8h7.8v1.5h-6.3v4.6h6.3v1.5h-6.3v4.6h6.3v1.5h-7.8v-13.7zM67.7 102.8h7.8v1.5h-6.3v4.6h6.3v1.5h-6.3v4.6h6.3v1.5h-7.8v-13.7zM77.6 116.5v-13.6h3.2c2.2 0 3.6.4 4.5 1.1.9.7 1.3 1.9 1.3 3.4 0 1-.2 1.9-.6 2.5-.4.7-.9 1.1-1.6 1.5.2.4.4 1 .8 1.5.3.5.8 1.1 1.2 1.6.4.5.9.8 1.3 1l-.8 1.3c-.5-.1-1-.5-1.5-1.1-.5-.6-1-1.3-1.4-2-.4-.7-.8-1.4-1-1.9-1 .2-1.9.2-3 .2h-.9v4.5h-1.5zm1.5-12.2v6.2h1.3c1.4 0 2.6-.2 3.4-.7.8-.5 1.2-1.3 1.2-2.4 0-1.2-.4-2-1.2-2.5-.8-.5-1.9-.6-3.2-.6h-1.5zM88.5 102.8H98v1.5h-4v12.1h-1.5v-12.1h-4v-1.5zM107.5 102.8v13.6H106v-13.6h1.5zM112.1 105.8v10.6h-1.5v-13.6h1.6l6.3 10.5v-10.5h1.5v13.6h-1.5l-6.4-10.6zM.1 138.2c.6 0 1-.2 1.4-.6.3-.4.5-1.1.5-2.1v-9.7h1.5v9.7c0 1.1-.2 2.2-.7 2.9-.5.8-1.4 1.3-2.7 1.3v-1.5zM6.5 132.6c0-2 .6-3.7 1.7-5 1.1-1.3 2.6-2 4.4-2 1.8 0 3.3.8 4.3 2 1 1.3 1.6 3 1.6 5s-.6 3.7-1.7 5c-1.1 1.3-2.6 2-4.4 2-1.8 0-3.3-.8-4.3-2s-1.6-3-1.6-5zm1.5-.1c0 1.6.4 3 1.2 4 .8 1 1.9 1.6 3.4 1.6 1.4 0 2.5-.6 3.3-1.5.7-1 1.2-2.3 1.2-3.9s-.4-3-1.2-4c-.8-1-1.9-1.6-3.3-1.6s-2.5.6-3.3 1.5c-.9 1-1.3 2.4-1.3 3.9zM29.4 125.8h1.5v8.6c0 1.5-.3 2.7-.8 3.4-.5.8-1.1 1.3-1.8 1.5-.7.3-1.5.3-2.2.3-.7 0-1.5-.1-2.2-.3-.7-.3-1.4-.7-1.8-1.5-.5-.8-.8-1.9-.8-3.4v-8.6h1.5v8c0 1.4.2 2.3.5 2.9.3.6.7 1 1.2 1.2.5.2 1 .2 1.5.2.6 0 1.1 0 1.6-.2s.9-.5 1.2-1.2c.3-.6.5-1.6.5-2.9v-8zM41.4 128.6l-2.9 10.8H37l-3.7-13.6h1.5l2.9 10.8 2.9-10.8h1.5l2.9 10.8 2.9-10.8h1.5l-3.7 13.6h-1.5l-2.8-10.8zM56.2 125.8h9.5v1.5h-4v12.1h-1.5v-12.1h-4v-1.5zM67 132.6c0-2 .6-3.7 1.7-5 1.1-1.3 2.6-2 4.4-2s3.3.8 4.3 2c1 1.3 1.6 3 1.6 5s-.6 3.7-1.7 5c-1.1 1.3-2.6 2-4.4 2-1.8 0-3.3-.8-4.3-2s-1.6-3-1.6-5zm1.5-.1c0 1.6.4 3 1.2 4 .8 1 1.9 1.6 3.4 1.6 1.4 0 2.5-.6 3.3-1.5.7-1 1.2-2.3 1.2-3.9s-.4-3-1.2-4c-.8-1-1.9-1.6-3.3-1.6s-2.5.6-3.3 1.5c-.9 1-1.3 2.4-1.3 3.9zM81.3 125.8h7.8v1.5h-6.3v4.6h6.3v1.5h-6.3v4.6h6.3v1.5h-7.8v-13.7zM94.7 132.5c1.1 2 4.1 4.8 5.4 5.5-.2.4-.6 1-.9 1.4h-.1c-2.1-1-5.7-5.2-6.5-7v7.1h-1.5v-13.6h1.5v6.4l5.1-6.4h1.9v.1l-5.1 6.4.1.1h.1zM101.2 132.6c0-2 .6-3.7 1.7-5 1.1-1.3 2.6-2 4.4-2 1.8 0 3.3.8 4.3 2 1 1.3 1.6 3 1.6 5s-.6 3.7-1.7 5c-1.1 1.3-2.6 2-4.4 2-1.8 0-3.3-.8-4.3-2s-1.6-3-1.6-5zm1.5-.1c0 1.6.4 3 1.2 4 .8 1 1.9 1.6 3.4 1.6 1.4 0 2.5-.6 3.3-1.5.7-1 1.2-2.3 1.2-3.9s-.4-3-1.2-4c-.8-1-1.9-1.6-3.3-1.6s-2.5.6-3.3 1.5c-.9 1-1.3 2.4-1.3 3.9zM121 132.7l3.3-6.9h2.1v13.6h-1.6V128l-3.7 7.5h-.4l-3.7-7.6v11.5h-1.5v-13.6h2.1l3.4 6.9zM128.8 137.6c.7.3 2 .6 2.9.6 1.5 0 3-.6 3-2.2 0-.9-.4-1.4-1.1-1.9-.6-.4-3.1-1.6-3.6-2.1-.6-.5-1-1.4-1-2.6 0-2.6 1.7-3.7 4-3.7.8 0 1.6.1 2.3.4v1.4c-.6-.1-1.4-.3-2.2-.3-1.4 0-2.6.5-2.6 2.1 0 .7.2 1 .6 1.4.6.6 2.7 1.5 3.6 2.2 1.1.8 1.6 1.3 1.6 2.8 0 2.7-2.2 4.1-4.6 4.1-.9 0-1.9-.2-2.6-.6v-1.6zM137.3 125.8h9.5v1.5h-4v12.1h-1.5v-12.1h-4v-1.5z"/></g></symbol><symbol id="external"><g fill="#58595B"><path d="M46.39 22.55a1 1 0 0 0-.29-.09l-2.1-.32v-.58a3.07 3.07 0 0 0-2.32-2.91l-1.81-.46a3 3 0 0 0-5.69-.19H33a3 3 0 0 0-3 3v12.09a5.86 5.86 0 0 1-1-1.3c-1-1.64-2.08-2.56-3.33-2.74a2.75 2.75 0 0 0-2.78 1.07c-.75 1.09-.65 2.72.25 4.36.32.58 1.07 2.12 1.8 3.61 1 2 1.86 3.82 2.22 4.42a5.56 5.56 0 0 0 1.5 1.62 4.92 4.92 0 0 1 .63.56C30.85 46.37 31 46.92 31 47v1h2v-1c0-.9-.66-2-2.27-3.69a7.75 7.75 0 0 0-.85-.75 3.65 3.65 0 0 1-1-1.08c-.32-.52-1.29-2.51-2.14-4.27-.77-1.58-1.5-3.08-1.84-3.69-.59-1.07-.61-1.91-.36-2.26a.85.85 0 0 1 .85-.23c.61.08 1.26.7 1.88 1.77a7.93 7.93 0 0 0 3.3 3.09A1 1 0 0 0 32 35V21a1 1 0 0 1 1-1h1v11h2V19a1 1 0 0 1 2 0v12h2V20.28l1.19.31a1.06 1.06 0 0 1 .81 1V31h2v-6.84l1.61.25a1 1 0 0 1 .39.83V43a13.92 13.92 0 0 1-.93 3.64.89.89 0 0 0-.07.36v1h2v-.82A14.71 14.71 0 0 0 48 43V25.24a3 3 0 0 0-1.61-2.69Z" style="fill:#1d1d1b"/><path d="M20 38a18 18 0 1 1 17.37-22.74l1.93-.53A20 20 0 1 0 20 40a19.61 19.61 0 0 0 3.16-.25l-.32-2A19.09 19.09 0 0 1 20 38Z" style="fill:#1d1d1b"/><path d="M20 28a8 8 0 1 0-8-8 8 8 0 0 0 8 8Zm0-14a6 6 0 1 1-6 6 6 6 0 0 1 6-6Z" style="fill:#1d1d1b"/><path style="fill:#1d1d1b" d="M19 19h2v2h-2zM16.41 10.66l-.72-1.86a12.1 12.1 0 0 0-7.12 7.54l1.9.61a10.12 10.12 0 0 1 5.94-6.29ZM14.25 5.06a16.16 16.16 0 0 0-9.49 10.06l1.9.61A14.14 14.14 0 0 1 15 6.93Z"/></g></symbol><symbol id="female" viewBox="0 0 36 96"><g style="enable-background:new 0 0 36 96"><style>.st0{fill:#455a64}</style><circle class="st0" cx="18" cy="12" r="12"/><path class="st0" d="M31.2 60H33c.9 0 1.7-.4 2.2-1 .6-.6.8-1.5.7-2.4l-2.7-21.3c-.4-3.1-2.9-5.4-6-5.4H8.7c-3.1 0-5.6 2.3-6 5.3L0 56.6c-.1.9.2 1.7.7 2.4.6.6 1.4 1 2.2 1h1.8L.2 74.1c-.4.9-.2 1.9.4 2.7C1.1 77.5 2 78 3 78h3.5l2.2 13c.5 2.9 3 5 5.9 5h6.9c2.9 0 5.4-2.1 5.9-5l2.2-13H33c1 0 1.9-.5 2.4-1.2.6-.8.7-1.8.4-2.7L31.2 60z"/></g></symbol><symbol id="guest" viewBox="0 0 54 96"><g style="enable-background:new 0 0 54 96"><style>.st0{fill:#455a64}</style><circle class="st0" cx="18" cy="12" r="12"/><path class="st0" d="M33.3 35.4c-.3-3.1-2.9-5.4-6-5.4H24c-.8 0-1.6.3-2.1.9L18 34.8l-3.9-3.9c-.5-.6-1.3-.9-2.1-.9H8.7c-3.1 0-5.7 2.3-6 5.4L0 62.7c-.1.8.2 1.7.8 2.3.6.6 1.4 1 2.2 1h3.3l2.5 24.6c.3 3.1 2.9 5.4 6 5.4h6.6c3.1 0 5.7-2.3 6-5.4L29.7 66H33c.8 0 1.7-.4 2.2-1 .6-.6.8-1.5.8-2.3l-2.7-27.3zM45 60c-1.7 0-3 1.3-3 3v6c0 1.7 1.3 3 3 3s3-1.3 3-3v-6c0-1.7-1.3-3-3-3z"/><path class="st0" d="M51 66H39c-1.7 0-3 1.3-3 3v24c0 1.7 1.3 3 3 3h12c1.7 0 3-1.3 3-3V69c0-1.7-1.3-3-3-3z"/></g></symbol><symbol id="input"><g fill="#58595B"><path d="M9 14a5 5 0 1 0-5-5 5 5 0 0 0 5 5Zm0-8a3 3 0 1 1-3 3 3 3 0 0 1 3-3Z"/><path d="M9 18h22a9 9 0 0 0 0-18H9a9 9 0 0 0 0 18ZM9 2h22a7 7 0 0 1 0 14H9A7 7 0 0 1 9 2ZM31 24a5 5 0 1 0 5 5 5 5 0 0 0-5-5Zm0 8a3 3 0 1 1 3-3 3 3 0 0 1-3 3Z"/><path d="M31 20H9a9 9 0 0 0 0 18h22a9 9 0 0 0 0-18Zm0 16H9a7 7 0 0 1 0-14h22a7 7 0 0 1 0 14Z"/></g></symbol><symbol id="kids" viewBox="0 0 78 96"><g style="enable-background:new 0 0 78 96"><style>.st0{fill:#455a64}</style><circle class="st0" cx="18" cy="12" r="12"/><path class="st0" d="M27.3 30H24c-.8 0-1.6.3-2.1.9L18 34.8l-3.9-3.9c-.5-.6-1.3-.9-2.1-.9H8.7c-3.1 0-5.7 2.3-6 5.4L0 62.7c-.1.8.2 1.7.8 2.3.6.6 1.4 1 2.2 1h3.3l2.5 24.6c.3 3.1 2.9 5.4 6 5.4h6.6c3.1 0 5.7-2.3 6-5.4L29.7 66H33c.8 0 1.7-.4 2.2-1 .6-.6.8-1.5.8-2.3l-2.7-27.3c-.4-3.1-2.9-5.4-6-5.4z"/><circle class="st0" cx="60" cy="12" r="12"/><path class="st0" d="M73.2 60H75c.9 0 1.7-.4 2.2-1 .6-.6.8-1.5.7-2.4l-2.7-21.3c-.4-3.1-2.9-5.4-6-5.4H50.7c-3.1 0-5.6 2.3-6 5.3L42 56.6c-.1.8.2 1.7.7 2.4.6.7 1.4 1 2.2 1h1.8L42 74.1c-.2.9 0 1.9.6 2.7.5.7 1.4 1.2 2.4 1.2h3.5l2.2 13c.5 2.9 3 5 5.9 5h6.9c2.9 0 5.4-2.1 5.9-5l2.2-13H75c1 0 1.9-.5 2.4-1.2.6-.8.7-1.8.4-2.7L73.2 60z"/></g></symbol><symbol id="knx-black" viewBox="0 0 1920.01 833.42"><path style="fill:#231f20" d="m1777.53 833.19-161.1.23-143.67-170.43-166.27 170.2h-135.38l239.63-243.89-190.61-226.53 158.09.11 119.29 138.61 138.24-138.61h135.41l-211.63 212.31 218 258zM750.47 362.25 960.04 657l-1.1-293.82 135.74-.41v470.59H938.84L721.77 540.81l.07 292.55H585.62V362.35l164.85-.1zM295.26 580.69l-19.21-24.12 191.87-194.15h-137.1L135.43 560.57V362.92L.32 362.9 0 833.16l135.43.03V698.86l53.49-54.07 158.93 188.4h161.7l-214.29-252.5zM1771.12 335.37C1536.14 126.36 1229.34 0 889.02 0h-.56v85.31c281.71.14 539.13 92.68 747.31 249.95l135.36.11Z"/><path d="M.07 335.63h135.56C343.96 178.24 605.78 85.3 887.77 85.3h.7V0C548.34.14 234.93 126.73.07 335.63M1855.14 383.29c-5.94-3.3-10.72-7.97-14.29-14-3.57-6.05-5.35-12.6-5.35-19.67s1.72-13.37 5.17-19.37c3.43-6.03 8.2-10.75 14.22-14.2 6.07-3.43 12.53-5.15 19.37-5.15s13.32 1.72 19.39 5.15c6.03 3.45 10.79 8.17 14.22 14.2 3.45 6.01 5.19 12.49 5.19 19.37.02 7.07-1.76 13.62-5.35 19.67-3.59 6.03-8.38 10.7-14.31 14-5.94 3.32-12.31 4.97-19.15 4.97s-13.19-1.65-19.12-4.97m41.68 6.03c7-3.93 12.62-9.46 16.87-16.57 4.2-7.14 6.32-14.84 6.32-23.12s-2.03-15.71-6.12-22.83c-4.06-7.09-9.66-12.64-16.8-16.69-7.13-4.06-14.74-6.07-22.83-6.07s-15.62 2.01-22.76 6.07c-7.16 4.04-12.76 9.6-16.82 16.69-4.06 7.11-6.07 14.72-6.07 22.83s2.1 15.99 6.32 23.12c4.22 7.11 9.82 12.64 16.84 16.57 7 3.91 14.5 5.87 22.49 5.87s15.53-1.96 22.56-5.87m-24.54-35.02c.93 0 2.42 1.83 4.49 5.49l1.85 3.48 7.72 14.7h10.12l-9.35-17.3c-2.21-4.11-4.31-6.77-6.28-7.97 3.73-1.6 6.53-3.86 8.33-6.77 1.81-2.91 2.71-5.98 2.71-9.19 0-2.78-.63-5.35-1.92-7.7-1.31-2.37-3.07-4.2-5.33-5.46-2.24-1.26-5.53-1.92-9.89-1.92h-17.97v56.31h8.9v-23.66h6.62Zm.11-25.83c3.12 0 5.28.43 6.52 1.29 1.24.84 2.19 1.9 2.85 3.18.63 1.26.97 2.69.97 4.29 0 2.57-.81 4.95-2.39 7.09-1.6 2.15-4.43 3.21-8.51 3.21h-6.16v-19.06h6.73Z" style="fill:#231f20"/></symbol><symbol id="knx" viewBox="0 0 242.8 105.2"><g style="enable-background:new 0 0 242.8 105.2"><style>.st0,.st1{clip-path:url(#SVGID_2_);fill:#fff}</style><clipPath id="SVGID_2_"><use xlink:href="#SVGID_1_" style="overflow:visible"/></clipPath><path class="st0" d="M236.8 44.8c.4 0 .7.1.8.2.2.1.3.2.4.4.1.2.1.3.1.5 0 .3-.1.6-.3.9-.2.3-.6.4-1.1.4h-.8v-2.4h.9zm0 3.3c.1 0 .3.2.6.7l.2.4 1 1.9h1.3l-1.2-2.2c-.3-.5-.5-.9-.8-1 .5-.2.8-.5 1.1-.9.2-.4.3-.8.3-1.2 0-.4-.1-.7-.2-1-.2-.3-.4-.5-.7-.7-.3-.2-.7-.2-1.3-.2h-2.3V51h1.1v-3h.9zm3.1 4.4c.9-.5 1.6-1.2 2.1-2.1.5-.9.8-1.9.8-2.9s-.3-2-.8-2.9c-.5-.9-1.2-1.6-2.1-2.1-.9-.5-1.9-.8-2.9-.8s-2 .3-2.9.8c-.9.5-1.6 1.2-2.1 2.1-.5.9-.8 1.9-.8 2.9 0 1.1.3 2 .8 2.9.5.9 1.2 1.6 2.1 2.1.9.5 1.8.7 2.8.7 1.1.1 2.1-.2 3-.7m-5.3-.7c-.8-.4-1.4-1-1.8-1.8-.5-.8-.7-1.6-.7-2.5 0-.9.2-1.7.7-2.5.4-.8 1-1.4 1.8-1.8.8-.4 1.6-.7 2.5-.7.9 0 1.7.2 2.5.7.8.4 1.4 1 1.8 1.8.4.8.7 1.6.7 2.5 0 .9-.2 1.7-.7 2.5-.5.8-1.1 1.4-1.8 1.8-.8.4-1.6.6-2.4.6-1 0-1.8-.2-2.6-.6M111.8 13.5s27.8-.3 53.1 7.8 41.6 22.6 41.6 22.6h17S205.6 24.2 171.1 12C136.8 0 111.8 1.5 111.8 1.5v12z"/><path class="st1" d="M54 11.5C21.6 21.7 0 44 0 44h17s14.1-13.8 41.4-22.4c27.3-8.7 53.3-8 53.3-8v-12c.1-.1-25.2-1.4-57.7 9.9"/><path style="clip-path:url(#SVGID_2_);fill:#fff" d="m97.8 47.3 26.5 37.3-.2-37.2h17v59.4h-19.6L94.2 69.9l-.3 36.9H77.2V47.3z"/><path class="st0" d="m224.3 107.3-20.4-.1-18-21.4-21 21.5h-17.1L178 76.5l-24-28.7h19.9L189 65.3l17.4-17.5h17.1l-26.7 26.9z"/><path class="st1" d="m37.3 75.4-2.5-3.1 24.3-24.6H41.8L17.1 72.8v-25H0v59.5h17.1v-17l6.7-6.8 20 23.8h20.5z"/></g></symbol><symbol id="logo" viewBox="0 0 104.1 23.6"><g style="enable-background:new 0 0 104.1 23.6"><path d="M0 0h4.6v8.4h.1C5.8 6.7 7.9 5.9 10 5.9c3.3 0 6.9 2.7 6.9 8.8 0 6.2-3.6 8.8-6.9 8.8-2.5 0-4.5-.7-5.5-2.6h-.1V23H0V0zm8.4 9.4c-2.7 0-3.9 2.6-3.9 5.4 0 2.8 1.2 5.3 3.9 5.3s3.9-2.6 3.9-5.3c0-2.8-1.2-5.4-3.9-5.4M18.6 11.5c.3-4.3 4.1-5.6 7.9-5.6 3.3 0 7.4.7 7.4 4.8v8.7c0 1.5.2 3 .6 3.7h-4.7c-.2-.5-.3-1.1-.3-1.6-1.5 1.5-3.6 2.1-5.6 2.1-3.2 0-5.7-1.6-5.7-5 0-3.8 2.9-4.7 5.7-5.1 2.8-.4 5.4-.3 5.4-2.2 0-2-1.4-2.3-3-2.3-1.7 0-2.9.7-3 2.5h-4.7zm10.6 3.4c-.8.7-2.4.7-3.8 1-1.4.3-2.7.8-2.7 2.5s1.3 2.1 2.8 2.1c3.6 0 3.7-2.8 3.7-3.9v-1.7zM39.9 17.7c0 2 1.7 2.8 3.5 2.8 1.3 0 3-.5 3-2.1 0-1.4-1.9-1.9-5.2-2.6-2.7-.6-5.3-1.5-5.3-4.5 0-4.3 3.7-5.4 7.3-5.4 3.7 0 7 1.2 7.4 5.3h-4.4C46.1 9.5 44.8 9 43.1 9c-1 0-2.6.2-2.6 1.6 0 1.7 2.6 1.9 5.2 2.5 2.7.6 5.3 1.6 5.3 4.7 0 4.4-3.8 5.8-7.6 5.8-3.9 0-7.7-1.5-7.9-5.9h4.4zM52.7 11.5c.3-4.3 4.1-5.6 7.9-5.6 3.3 0 7.4.7 7.4 4.8v8.7c0 1.5.2 3 .6 3.7h-4.7c-.2-.5-.3-1.1-.3-1.6-1.5 1.5-3.6 2.1-5.6 2.1-3.2 0-5.7-1.6-5.7-5 0-3.8 2.8-4.7 5.7-5.1 2.8-.4 5.4-.3 5.4-2.2 0-2-1.4-2.3-3-2.3-1.7 0-2.9.7-3 2.5h-4.7zm10.6 3.4c-.8.7-2.4.7-3.8 1-1.4.3-2.7.8-2.7 2.5s1.3 2.1 2.8 2.1c3.6 0 3.7-2.8 3.7-3.9v-1.7zM70.7 0h4.6v23.1h-4.6zM83.7 6.4h3.4v3.1h-3.4v8.3c0 1.6.4 1.9 1.9 1.9.5 0 .9 0 1.4-.1v3.6c-.8.1-1.8.2-2.7.2-2.8 0-5.3-.6-5.3-4V9.5h-2.8V6.4H79v-5h4.6v5zM92 15.9c.1 2.9 1.6 4.2 4.1 4.2 1.8 0 3.3-1.1 3.6-2.2h4c-1.3 4-4 5.6-7.8 5.6-5.3 0-8.6-3.6-8.6-8.8 0-5 3.5-8.8 8.6-8.8 5.7 0 8.5 4.8 8.1 9.9H92zm7.5-2.9c-.4-2.3-1.4-3.6-3.7-3.6-2.9 0-3.8 2.3-3.8 3.6h7.5z"/></g></symbol><symbol id="lutron" viewBox="0 0 216 30.39"><path d="M15.99 7.65c-.25-.03-.51-.04-.77-.04s-.52.01-.77.04L13.66.08C14.17.03 14.69 0 15.22 0s1.03.03 1.54.08l-.77 7.57ZM12.87 8.01c-.24.07-.49.16-.73.27-.24.1-.47.21-.69.34L7.77 1.95c.45-.25.92-.48 1.4-.68.48-.2.96-.38 1.45-.53l2.25 7.27ZM10.32 9.39c-.19.17-.38.34-.56.53a9.2 9.2 0 0 0-.51.58L3.26 5.8c.32-.4.66-.8 1.02-1.17.36-.37.74-.73 1.12-1.05l4.91 5.81ZM8.48 11.69a6.997 6.997 0 0 0-.58 1.43l-7.32-2.1c.14-.49.31-.98.51-1.47.19-.48.41-.95.65-1.4l6.73 3.55ZM7.65 14.51c-.03.26-.04.51-.04.77s.01.52.04.77l-7.57.79C.03 16.33 0 15.81 0 15.28s.03-1.03.08-1.54l7.57.76ZM8.01 17.63c.08.25.16.49.27.73.1.24.21.47.34.69l-6.66 3.68c-.25-.45-.48-.92-.68-1.4-.2-.48-.38-.96-.53-1.45l7.27-2.25ZM9.39 20.17c.17.2.34.38.53.56.19.18.38.35.58.51l-4.69 5.99a15.97 15.97 0 0 1-2.22-2.15l5.81-4.91ZM11.69 22.02c.23.12.46.23.7.33.24.1.48.18.73.25l-2.11 7.31c-.49-.14-.99-.31-1.47-.51-.48-.19-.95-.41-1.4-.65l3.55-6.73ZM14.42 22.75c.25.03.51.04.77.04s.52-.01.77-.04l.79 7.57c-.51.05-1.03.08-1.56.08s-1.03-.03-1.54-.08l.77-7.57ZM17.54 22.38c.24-.07.49-.16.73-.27.24-.1.47-.21.69-.34l3.68 6.66c-.45.25-.92.47-1.4.68-.48.2-.96.38-1.45.53l-2.25-7.27ZM20.09 21.01c.19-.16.38-.34.56-.53.18-.19.35-.38.51-.58l5.99 4.69c-.32.4-.66.8-1.02 1.17-.36.37-.74.72-1.13 1.05L20.09 21ZM21.94 18.7c.12-.22.23-.46.33-.7.1-.24.18-.48.25-.73l7.31 2.11c-.14.49-.31.98-.51 1.47-.19.48-.41.95-.65 1.4l-6.73-3.55ZM22.79 15.99c.03-.25.04-.51.04-.77s-.01-.52-.04-.77l7.57-.79c.05.51.08 1.03.08 1.56s-.03 1.03-.08 1.54l-7.57-.77ZM22.43 12.87a9.09 9.09 0 0 0-.27-.73c-.1-.24-.21-.47-.34-.69l6.66-3.68c.25.45.48.92.68 1.4.2.48.38.96.53 1.45l-7.27 2.25ZM21.05 10.33c-.16-.19-.34-.38-.53-.57a9.2 9.2 0 0 0-.58-.51l4.69-5.99c.4.32.8.66 1.17 1.02.38.36.73.74 1.05 1.12l-5.81 4.91ZM18.74 8.47c-.23-.12-.46-.23-.7-.33-.24-.1-.48-.18-.73-.25L19.42.58c.49.14.99.31 1.47.51.48.19.95.41 1.4.65l-3.55 6.73ZM96.25 28.21h6.96V7.8h9.94V2.36H86.29V7.8h9.96v20.41z"/><path d="M142.85 15.01c0 7.69 5.97 13.85 16.12 13.85 10.03 0 16.12-6.16 16.12-13.85s-5.98-13.49-16.12-13.49-16.11 5.57-16.11 13.49Zm8.06.55c0-4.67 1.73-8.78 7.98-8.84 6.32-.07 8.87 4.06 8.51 8.71-.33 4.32-2.26 8.05-8.51 8.05s-7.98-3.72-7.98-7.91Z" style="fill-rule:evenodd"/><path d="M177.17 28.21h6.99V11.7h.09l13.4 16.51h8.06V2.32l-7.07.04v16.81h-.09L185.13 2.36h-7.96v25.85zM34.01 28.23h21.91v-5.51H41V2.32h-6.99v25.91zM84.71 2.32h-6.96v15.83c0 3.96-2.24 5.53-7.38 5.53s-7.35-1.55-7.34-5.53V2.32h-6.94v15.83c0 7.24 5.47 10.72 14.29 10.72s14.34-3.51 14.34-10.72V2.32Z"/><path d="M114.66 28.21h6.46V18.14h10.46c2.72-.04 3.21 1.29 3.65 4.04.55 3.4.99 6.15 2.94 6.03h5.48c-1.58.32-2.05-4.2-2.38-6.33-.89-5.7-1.86-5.98-4.52-6.09l-.03-.09c3.36-1.06 5.49-3.65 5.41-6.78-.11-4.17-3-7.01-9.78-6.59h-17.68v25.88Zm6.37-20.58h8.66c3.22 0 5.45.46 5.45 3.03s-2.24 3.04-5.45 3.04h-8.66V7.63ZM216 24.56c0-1.98-1.61-3.59-3.59-3.59s-3.6 1.61-3.59 3.59c0 1.99 1.61 3.59 3.59 3.59 1.98-.01 3.59-1.6 3.59-3.59Zm-.41 0c0 1.76-1.43 3.18-3.18 3.18-1.76 0-3.17-1.42-3.17-3.17-.01-1.76 1.42-3.19 3.17-3.19s3.19 1.43 3.19 3.18Zm-4.52 1.87h.51v-1.7h1.3c.82 0 .59.73.68 1.2l.08.5h.6c-.22-.34-.14-.43-.19-.95-.06-.69-.08-.75-.48-1.01.39-.29.54-.48.52-.99-.05-.9-.65-1.01-1.26-1.01h-1.77v3.96Zm1.78-3.51c.31 0 .8.08.73.76-.05.51-.38.6-.73.6h-1.27v-1.36h1.27Z" style="fill-rule:evenodd"/><path d="M211.07 26.43v-3.96h1.77c.61 0 1.21.11 1.26 1.01.02.51-.14.7-.52.99.41.26.42.32.48 1.01.04.52-.03.6.19.95h-.6l-.08-.5c-.08-.47.14-1.2-.68-1.2h-1.3v1.7h-.51Zm1.78-3.51h-1.27v1.36h1.27c.34 0 .68-.09.73-.6.08-.68-.41-.76-.73-.76Z"/></symbol><symbol id="male" viewBox="0 0 36 96"><g style="enable-background:new 0 0 36 96"><style>.st0{fill:#455a64}</style><circle class="st0" cx="18" cy="12" r="12"/><path class="st0" d="M33.3 35.4c-.3-3.1-2.9-5.4-6-5.4H8.7c-3.1 0-5.7 2.3-6 5.4L0 62.7c-.1.8.2 1.7.8 2.3.6.6 1.4 1 2.2 1h3.3l2.5 24.6c.3 3.1 2.9 5.4 6 5.4h6.6c3.1 0 5.7-2.3 6-5.4L29.7 66H33c.8 0 1.7-.4 2.2-1 .6-.6.8-1.5.8-2.3l-2.7-27.3z"/></g></symbol><symbol id="playlists"><g fill="#58595B"><path d="M37.36 15.38a5.4 5.4 0 0 1-2.44-2.78A1 1 0 0 0 33 13v16.32a4.55 4.55 0 0 0-2.71-.2c-2.4.51-4.29 2.54-4.29 4.62a3.11 3.11 0 0 0 1.15 2.45 3.93 3.93 0 0 0 2.48.81 5.1 5.1 0 0 0 1.08-.12c2.4-.51 4.29-2.54 4.29-4.62a2.3 2.3 0 0 0 0-.26V16.14a11 11 0 0 0 1.28.93c1.11.7 1.72 1.1 1.72 3.8h2c0-3.53-1.09-4.5-2.64-5.49Zm-7.07 19.55a2.27 2.27 0 0 1-1.88-.3 1.1 1.1 0 0 1-.41-.89c0-1.13 1.24-2.35 2.71-2.67a3.8 3.8 0 0 1 .66-.07 2 2 0 0 1 1.22.37 1.1 1.1 0 0 1 .41.89c0 1.13-1.24 2.36-2.71 2.67ZM26 20V1a1 1 0 0 0-.42-.82 1 1 0 0 0-.92-.12l-14 5A1 1 0 0 0 10 6v16.32a4.55 4.55 0 0 0-2.71-.2C4.89 22.63 3 24.66 3 26.74a3.11 3.11 0 0 0 1.15 2.45 3.93 3.93 0 0 0 2.48.81 5.1 5.1 0 0 0 1.08-.12c2.4-.51 4.29-2.54 4.29-4.62a2.3 2.3 0 0 0 0-.26V11.71l12-4.29v9.9a4.55 4.55 0 0 0-2.71-.2c-2.4.51-4.29 2.54-4.29 4.62a3.11 3.11 0 0 0 1.15 2.45 3.93 3.93 0 0 0 2.48.81 5.1 5.1 0 0 0 1.08-.12c2.4-.51 4.29-2.54 4.29-4.62a2.3 2.3 0 0 0 0-.26ZM7.29 27.93a2.27 2.27 0 0 1-1.88-.3 1.1 1.1 0 0 1-.41-.89c0-1.13 1.24-2.35 2.71-2.67a3.8 3.8 0 0 1 .66-.07 2 2 0 0 1 1.22.37 1.1 1.1 0 0 1 .41.89c0 1.13-1.24 2.36-2.71 2.67ZM12 9.58V6.7l12-4.28V5.3Zm9.29 13.35a2.27 2.27 0 0 1-1.88-.3 1.1 1.1 0 0 1-.41-.89c0-1.13 1.24-2.35 2.71-2.67a3.8 3.8 0 0 1 .66-.07 2 2 0 0 1 1.22.37 1.1 1.1 0 0 1 .41.89c0 1.13-1.24 2.36-2.71 2.67ZM4 9V7h2V5H4V3H2v2H0v2h2v2h2zM45 33h-2v-2h-2v2h-2v2h2v2h2v-2h2v-2zM17 33h-2v2h-2v2h2v2h2v-2h2v-2h-2v-2zM39 7h2V5h2V3h-2V1h-2v2h-2v2h2v2z"/></g></symbol><symbol id="samsung" viewBox="0 0 160.24 23.46"><path d="M87.87 10.89s-1.56-.96-2.52-1.34c0 0-2.98-1.38-3.58-2.04 0 0-1.16-1.1-.48-2.37 0 0 .28-.83 1.51-.83 0 0 1.6.09 1.6 1.4v1.86h5.73V4.84S90.56.37 83.37.17c0 0-5.66-.37-7.28 2.68 0 0-.64.68-.64 3.05v1.71s-.07 1.97.94 3.25c0 0 .57.83 1.97 1.75 0 0 2.85 1.54 4.56 2.41 0 0 1.73.99 1.5 2.55 0 0-.14 1.61-1.81 1.54 0 0-1.53-.07-1.53-1.65v-1.85h-6.11v2.69s-.17 5.15 7.68 5.15c0 0 7.5.15 7.85-5.29v-2.19s.26-3.33-2.65-5.09ZM58.51.81l-1.92 12.03h-.45L54.31.92h-9.58l-.48 21.79h5.67l.07-16.42h.45l3 16.41h5.97l2.97-16.4h.39l.14 16.41h5.7L68 .81h-9.49zM24.76.9l-3.78 21.78h6.11l2.23-16.89h.5l2.24 16.89h6.1L34.39.9h-9.63zM152.86 10.59v3.21h1.57v3.45c0 1.69-1.44 1.72-1.44 1.72-1.75 0-1.69-1.6-1.69-1.6V5.44c0-1.23 1.55-1.29 1.55-1.29 1.49 0 1.5 1.47 1.5 1.47v1.81h5.75c.19-3.54-.52-4.4-.52-4.4-1.42-3.2-6.82-3.03-6.82-3.03-8.29 0-7.37 6.36-7.37 6.36V17.9c.18 5.96 8.34 5.36 8.48 5.35 3.63-.4 4.73-1.56 4.73-1.56 1.01-.75 1.27-1.79 1.27-1.79.29-.61.36-2.53.36-2.53v-6.78h-7.38ZM133.8 14.14h-.24L127.72.82h-6.98v21.89h5.68l-.34-13.32h.26l6.04 13.32h6.77V.81h-5.75l.4 13.33zM106.88 17.25s.08 1.8-1.58 1.8c0 0-1.75.09-1.75-1.75L103.53.83H97.3v16.34s-.64 6.18 8.09 6.18c0 0 7.58.09 7.58-5.9V.83h-6.09v16.42ZM12.88 10.89s-1.56-.96-2.52-1.34c0 0-2.98-1.38-3.57-2.04 0 0-1.16-1.1-.48-2.37 0 0 .28-.83 1.51-.83 0 0 1.6.09 1.6 1.4v1.86h5.74V4.84S15.58.37 8.38.17c0 0-.54-.03-1.34 0 .01 0-4.35.24-5.91 2.63 0 .02-.02.03-.03.05 0 0-.64.68-.64 3.05v1.71s-.07 1.97.94 3.25c0 0 .57.83 1.97 1.75 0 0 2.85 1.53 4.56 2.41 0 0 1.73.99 1.5 2.56 0 0-.14 1.61-1.81 1.54 0 0-1.53-.07-1.53-1.65v-1.85H0v2.69s-.17 5.15 7.68 5.15c0 0 7.5.15 7.85-5.29v-2.19s.26-3.33-2.65-5.09Z" style="fill:#fff;fill-rule:evenodd"/></symbol><symbol id="sonos" viewBox="0 0 2500 478.81"><path d="M1134.05 169.76V458.9h-66.78V6.49l298.84 301.94V17.75h66.82V471.8l-298.87-302.04ZM1826.3 0c-130.74 0-237.06 107.23-237.06 239.13s106.32 239.06 237.06 239.06 237.07-107.22 237.07-239.06S1957 0 1826.3 0Zm0 410.28c-92.66 0-168.11-76.8-168.11-171.15s75.45-171.15 168.11-171.15 168.07 76.78 168.07 171.15S1919 410.28 1826.3 410.28ZM673.67 0C542.94 0 436.61 107.23 436.61 239.13s106.33 239.06 237.06 239.06 237.06-107.22 237.06-239.06C910.73 107.23 804.43 0 673.67 0Zm0 410.28c-92.7 0-168.06-76.8-168.06-171.15S580.97 67.98 673.67 67.98s168.11 76.78 168.11 171.15c0 94.36-75.43 171.15-168.11 171.15ZM145.82 272.72l-.27-.11c-44.63-14.3-74.51-28.39-97.02-45.74C16.35 202.14 0 170.6 0 133.12c0-35.1 16.18-69.3 44.38-94.03C73.19 13.86 112.88 0 156.12 0c90.5 0 142.22 60.82 144.39 63.43l-54.91 37.42c-12.72-9.58-46.13-31.1-89.48-31.1-54.44 0-86.98 32.21-86.98 63.37 0 21.73 11.82 45.63 97.31 73.07l.33.05c44.52 14.26 74.5 28.39 96.99 45.69 32.21 24.78 48.53 56.32 48.53 93.81 0 35.09-16.19 69.35-44.44 94.03-28.75 25.18-68.43 39.03-111.71 39.03-90.47 0-142.2-60.76-144.36-63.39l54.96-37.42c12.7 9.6 46.12 31.11 89.4 31.11 54.46 0 87.03-32.15 87.03-63.37 0-21.73-11.78-45.63-97.36-73.02Zm2187.71 0-.3-.11c-44.6-14.3-74.51-28.39-96.97-45.74-32.16-24.73-48.58-56.27-48.58-93.75 0-35.1 16.23-69.3 44.44-94.03C2260.83 13.87 2300.49.01 2343.84.01c90.5 0 142.24 60.82 144.44 63.43l-54.98 37.42c-12.69-9.58-46.11-31.1-89.46-31.1-54.48 0-87.03 32.21-87.03 63.37 0 21.73 11.83 45.63 97.39 73.07l.33.05c44.57 14.26 74.45 28.39 96.97 45.69 32.12 24.78 48.49 56.32 48.49 93.81 0 35.09-16.18 69.35-44.35 94.03-28.79 25.18-68.48 39.03-111.8 39.03-90.48 0-142.16-60.76-144.34-63.39l54.93-37.42c12.74 9.6 46.06 31.11 89.41 31.11 54.52 0 86.99-32.15 86.99-63.37-.01-21.73-11.78-45.63-97.32-73.02Z" style="fill:#fff"/></symbol><symbol id="sony" viewBox="0 0 1827.78 321.8"><path d="M317.89 142.15c-9.19-4.34-23.68-9.53-35.55-12.43-23.02-5.66-75.07-12.62-99.98-15.23-26.09-2.72-71.39-6.47-89.47-12.06-5.49-1.7-16.66-7.04-16.66-20 0-9.23 5.11-17.06 15.21-23.38 16.04-10.06 48.43-16.3 82.22-16.3 39.92-.15 73.73 8.98 95.24 18.6 7.32 3.26 15.87 7.96 22.66 13.51 7.68 6.26 18.45 19.23 22.34 37.36h36.09V14.21h-40.3v11.38c0 3.68-3.79 8.47-10.98 4.51C280.67 20.64 229.7.24 167.21.15c-35.42 0-75.66 6.64-109.85 21.89C25.81 36.13 0 58.9 0 96.64c-.02 34 21.58 53.92 21 53.36 9.19 8.47 23.98 22.87 62.66 31.32 17.28 3.79 54.24 9.6 91.05 13.45 36.53 3.85 72.49 7.51 87.13 11.21 11.64 2.96 31.19 7 31.19 28.92s-20.6 28.51-24.17 29.96c-3.57 1.4-28.28 12.75-72.68 12.75-32.79 0-72.19-9.85-86.56-15-16.58-5.89-33.94-13.68-50.15-33.47-4.02-4.92-10.38-18.4-10.38-31.77H8.92v112.6h44.66v-15.21c0-1.74 2.17-8.85 9.66-5.47 9.34 4.23 36.72 15.13 65.36 21.11 23.47 4.91 38.62 8.45 67.79 8.45 47.64 0 73.22-7.77 90.9-12.81 16.68-4.79 37.26-13.34 53.98-26.68 9.06-7.21 28.94-25.7 28.94-59.26s-17.3-52.19-23.38-58.28c-8.28-8.3-18.41-14.72-28.94-19.66ZM167.2.15h.02-.02zM1666.3 17.98v35.75h24.36c6.87 0 9.04 7.23 5.85 11.06-.53.62-67.66 79.51-68.49 80.3-.85.77-1.36.57-1.98-.28-.64-.83-66.94-80.13-66.94-80.13-4.68-5.79-1.04-11 4.47-11h23.75v-35.7h-197.05v35.75h34.92c15.23 0 25.26 9.62 30.96 15.83 4.6 5.02 104.98 118.79 107.52 122.09 2.32 3.02 2.4 3.62 2.4 4.98l-.02 56.45c0 1.15-.26 6.51-.77 7.72a12.33 12.33 0 0 1-7.72 6.87c-1.36.4-8.38.62-9.96.62l-34.96-.04V304h196.03v-35.75h-36.92c-1.57 0-8.49-.19-9.85-.62-3.47-1.04-6.3-3.55-7.74-6.85-.51-1.21-.77-6.57-.77-7.72v-56.45c0-1.34-.13-3.64 1.32-5.28 2.77-3.15 104.24-118.96 108.75-124.05 9.83-11.15 15.17-13.55 28.26-13.55h36.07V17.98h-161.48ZM1187.56 53.73h36.96c16.94 0 19.81 6.53 20.02 22.19l2.02 119.39-196.52-177.35H909.48v35.79h31.3c22.62 0 24.13 12.72 24.13 23.51v167.35c0 10 .57 23.75-13.83 23.75H912.5v35.7h165.03v-35.7h-40.36c-16.06 0-16.79-7.34-16.98-22.94l-.04-143.37 226.33 202.03h57.56L1301 75.92c.19-16.68 1.3-22.19 18.55-22.19h36.04V18h-168.03v35.73ZM820.23 56.58C777.33 17.66 721.24 0 651.16 0c-63.34 0-130.6 21.75-168.71 56.47-30.34 27.68-45.87 65.73-45.87 104.15s14.89 76.68 45.87 104.49c41.04 36.83 102.49 56.68 168.71 56.68s129.13-19.62 169.07-56.68c29.6-27.47 45.26-67.19 45.26-104.49s-14.75-76.36-45.26-104.05Zm-78.56 187.99c-22.77 22.66-55.36 34.79-90.51 34.79s-68.15-12.4-90.66-34.77c-21.51-21.43-33.04-51.77-33.04-83.96s11.38-62.66 33.04-84.13c22.49-22.26 55.9-34.58 90.66-34.58s68.05 12.45 90.51 34.58c21.77 21.47 33.13 51.75 33.13 84.13s-10.53 61.45-33.13 83.94Z" style="fill:#fff"/></symbol><symbol id="sources"><g fill="#58595B"><path d="M46 19a1 1 0 0 0-.42-.82 1 1 0 0 0-.92-.12l-14 5A1 1 0 0 0 30 24v15.32a4.55 4.55 0 0 0-2.71-.2c-2.4.51-4.29 2.54-4.29 4.62a3.11 3.11 0 0 0 1.15 2.45 3.93 3.93 0 0 0 2.48.81 5.1 5.1 0 0 0 1.08-.12c2.4-.51 4.29-2.54 4.29-4.62a2.3 2.3 0 0 0 0-.26V29.7l12-4.28v8.9a4.55 4.55 0 0 0-2.71-.2c-2.4.51-4.29 2.54-4.29 4.62a3.11 3.11 0 0 0 1.15 2.45 3.93 3.93 0 0 0 2.48.81 5.1 5.1 0 0 0 1.08-.12c2.4-.51 4.29-2.54 4.29-4.62a2.3 2.3 0 0 0 0-.26ZM27.29 44.93a2.27 2.27 0 0 1-1.88-.3 1.1 1.1 0 0 1-.41-.89c0-1.13 1.24-2.36 2.71-2.67a3 3 0 0 1 .66-.07 2 2 0 0 1 1.22.37 1.1 1.1 0 0 1 .41.89c0 1.13-1.24 2.36-2.71 2.67ZM32 27.58v-2.87l12-4.29v2.88Zm9.29 12.35a2.27 2.27 0 0 1-1.88-.3 1.1 1.1 0 0 1-.41-.89c0-1.13 1.24-2.36 2.71-2.67a3 3 0 0 1 .66-.07 2 2 0 0 1 1.22.37 1.1 1.1 0 0 1 .41.89c0 1.13-1.24 2.36-2.71 2.67Z"/><path d="M27.5 33.73A17 17 0 1 1 36 19h2a19 19 0 1 0-9.5 16.46Z"/><path d="M14 19a5 5 0 1 0 5-5 5 5 0 0 0-5 5Zm8 0a3 3 0 1 1-3-3 3 3 0 0 1 3 3Z"/></g></symbol><symbol id="spotify" viewBox="0 0 558.43 167.49"><path d="M83.74 0C37.49 0 0 37.49 0 83.74s37.49 83.74 83.74 83.74 83.74-37.49 83.74-83.74S129.99 0 83.74 0Zm38.41 120.79c-1.5 2.47-4.72 3.24-7.18 1.74-19.67-12.02-44.42-14.73-73.57-8.07a5.214 5.214 0 1 1-2.32-10.17c31.9-7.29 59.26-4.15 81.34 9.33a5.217 5.217 0 0 1 1.73 7.18Zm10.25-22.8c-1.89 3.07-5.91 4.04-8.98 2.15-22.5-13.83-56.82-17.84-83.45-9.76-3.45 1.04-7.1-.9-8.15-4.35a6.54 6.54 0 0 1 4.35-8.14c30.42-9.23 68.23-4.76 94.07 11.13 3.07 1.89 4.04 5.91 2.15 8.98Zm.88-23.74c-26.99-16.03-71.52-17.5-97.29-9.68-4.14 1.26-8.51-1.08-9.77-5.22a7.839 7.839 0 0 1 5.22-9.77c29.58-8.98 78.76-7.24 109.83 11.2 3.72 2.21 4.94 7.02 2.74 10.73-2.21 3.72-7.02 4.95-10.73 2.74ZM227.84 77.31c-14.46-3.45-17.03-5.87-17.03-10.95 0-4.8 4.52-8.04 11.25-8.04s12.98 2.46 19.76 7.51c.21.15.46.21.71.17.25-.04.48-.18.63-.39l7.06-9.95c.29-.41.21-.97-.18-1.29-8.07-6.47-17.15-9.62-27.77-9.62-15.61 0-26.52 9.37-26.52 22.77 0 14.38 9.41 19.46 25.66 23.39 13.84 3.19 16.17 5.86 16.17 10.63 0 5.29-4.72 8.58-12.32 8.58-8.44 0-15.32-2.84-23.03-9.51-.19-.16-.45-.24-.69-.23-.25.02-.49.14-.65.33l-7.92 9.42a.94.94 0 0 0 .09 1.31c8.96 8 19.98 12.22 31.87 12.22 16.82 0 27.69-9.19 27.69-23.42 0-12.02-7.18-18.67-24.8-22.96ZM290.7 63.05c-7.29 0-13.27 2.87-18.21 8.76v-6.62a.95.95 0 0 0-.95-.95h-12.95c-.52 0-.95.43-.95.95v73.6c0 .52.42.95.95.95h12.95c.52 0 .95-.43.95-.95v-23.23c4.93 5.54 10.92 8.24 18.21 8.24 13.55 0 27.27-10.43 27.27-30.37s-13.72-30.37-27.27-30.37Zm12.21 30.37c0 10.15-6.25 17.24-15.21 17.24s-15.53-7.41-15.53-17.24 6.68-17.24 15.53-17.24 15.21 7.25 15.21 17.24ZM353.12 63.05c-17.45 0-31.12 13.44-31.12 30.59s13.58 30.26 30.9 30.26 31.22-13.39 31.22-30.48-13.62-30.37-31.01-30.37Zm0 47.72c-9.28 0-16.28-7.46-16.28-17.34s6.75-17.13 16.06-17.13 16.39 7.46 16.39 17.35-6.8 17.13-16.17 17.13ZM421.39 64.23h-14.25V49.66a.95.95 0 0 0-.95-.95h-12.94c-.52 0-.95.43-.95.95v14.57h-6.23c-.52 0-.94.43-.94.95v11.13c0 .52.42.95.94.95h6.23v28.79c0 11.63 5.79 17.53 17.21 17.53 4.64 0 8.5-.96 12.13-3.02.29-.16.48-.48.48-.82v-10.6c0-.33-.17-.64-.45-.81a.918.918 0 0 0-.92-.04c-2.49 1.25-4.91 1.83-7.6 1.83-4.15 0-6.01-1.89-6.01-6.11V77.25h14.25c.52 0 .94-.43.94-.95V65.17c0-.52-.42-.95-.94-.95ZM471.03 64.29V62.5c0-5.26 2.02-7.61 6.54-7.61 2.7 0 4.87.54 7.3 1.35.3.09.61.05.85-.13.25-.18.39-.47.39-.77V44.43c0-.42-.27-.79-.67-.91-2.57-.76-5.85-1.55-10.76-1.55-11.96 0-18.28 6.73-18.28 19.47v2.74h-6.22c-.52 0-.95.43-.95.95v11.18c0 .52.43.95.95.95h6.22v44.41c0 .52.42.95.94.95h12.95c.52 0 .95-.43.95-.95V77.26h12.09l18.52 44.4c-2.1 4.67-4.17 5.59-6.99 5.59-2.28 0-4.68-.68-7.14-2.02a.936.936 0 0 0-1.31.44l-4.39 9.63c-.21.45-.03.99.41 1.22 4.58 2.48 8.72 3.54 13.83 3.54 9.56 0 14.84-4.45 19.5-16.43l22.46-58.04a.945.945 0 0 0-.88-1.29h-13.48c-.4 0-.76.26-.9.64l-13.81 39.44-15.12-39.46a.94.94 0 0 0-.88-.61h-22.12Z" style="fill:#fff"/><rect x="428.36" y="64.23" width="14.84" height="58.38" rx=".95" ry=".95" style="fill:#fff"/><path d="M435.85 38.51c-5.13 0-9.29 4.15-9.29 9.28s4.16 9.29 9.29 9.29 9.28-4.16 9.28-9.29-4.16-9.28-9.28-9.28ZM549.27 82.39c-5.12 0-9.11-4.11-9.11-9.11s4.04-9.16 9.16-9.16 9.11 4.11 9.11 9.11-4.04 9.16-9.16 9.16Zm.05-17.36c-4.67 0-8.2 3.71-8.2 8.25s3.51 8.2 8.15 8.2 8.2-3.71 8.2-8.25-3.51-8.2-8.15-8.2Zm2.02 9.14 2.58 3.61h-2.17l-2.32-3.31h-1.99v3.31h-1.82v-9.56h4.26c2.22 0 3.68 1.14 3.68 3.05 0 1.57-.91 2.53-2.22 2.9Zm-1.54-4.31h-2.37v3.03h2.37c1.18 0 1.89-.58 1.89-1.51 0-.98-.71-1.51-1.89-1.51Z" style="fill:#fff"/></symbol><symbol id="sync"><g fill="#58595B"><path d="M21 34a3 3 0 0 1-3-3V3a1 1 0 0 0-2 0v20a3 3 0 0 1-6 0V11a1 1 0 0 0-2 0v7a3 3 0 0 1-6 0 1 1 0 0 0-1-1H0v-2h1a3 3 0 0 1 3 3 1 1 0 0 0 2 0v-7a3 3 0 0 1 6 0v12a1 1 0 0 0 2 0V3a3 3 0 0 1 6 0v28a1 1 0 0 0 2 0V7a3 3 0 0 1 6 0v15a1 1 0 0 0 2 0v-8a3 3 0 0 1 6 0v1a1 1 0 0 0 1 1h2v2h-2a3 3 0 0 1-3-3v-1a1 1 0 0 0-2 0v8a3 3 0 0 1-6 0V7a1 1 0 0 0-2 0v24a3 3 0 0 1-3 3Z"/></g></symbol></svg>